<svg width="314" height="410" viewBox="0 0 314 410" fill="none" xmlns="http://www.w3.org/2000/svg">
<path d="M159.837 397.308C159.837 397.584 160.061 397.808 160.337 397.808C160.613 397.808 160.837 397.584 160.837 397.308H159.837ZM155.881 181.392L156.345 181.205L156.345 181.205L155.881 181.392ZM115.089 134.064L115.433 133.701L115.433 133.701L115.089 134.064ZM66.6416 91.817L66.335 92.2119L66.335 92.2119L66.6416 91.817ZM30.6488 64.6157L30.9334 64.2047L30.9334 64.2047L30.6488 64.6157ZM0.140529 39.6065L0.602012 39.4141L0.140529 39.6065ZM19.5652 36.9163L19.5876 36.4168L19.5652 36.9163ZM63.785 53.9544L64.062 53.5382L64.062 53.5382L63.785 53.9544ZM106.405 88.8278L106.774 88.4898L106.774 88.4898L106.405 88.8278ZM129.029 122.904L128.625 123.198L128.625 123.198L129.029 122.904ZM157.252 270.867L156.756 270.93L156.756 270.93L157.252 270.867ZM156.224 357.453L156.724 357.465L156.724 357.465L156.224 357.453ZM151.61 395.514C151.61 395.791 151.834 396.014 152.11 396.014C152.386 396.014 152.61 395.791 152.61 395.514H151.61ZM155.195 242.769L155.694 242.801L155.694 242.801L155.195 242.769ZM159.309 185.078L158.814 185.004L158.814 185.004L159.309 185.078ZM167.422 50.3675L167.75 49.9906L167.75 49.9906L167.422 50.3675ZM172.678 86.4365L173.167 86.3335L173.167 86.3335L172.678 86.4365ZM182.961 181.093L183.461 181.098L183.461 181.098L182.961 181.093ZM168.564 300.46L169.04 300.614L169.04 300.614L168.564 300.46ZM143.883 359.645L143.383 359.64C143.381 359.855 143.517 360.047 143.721 360.117C143.924 360.187 144.15 360.119 144.281 359.948L143.883 359.645ZM177.705 190.857L178.187 190.991L177.705 190.857ZM197.359 107.361L196.872 107.244L196.872 107.244L197.359 107.361ZM207.642 53.1573L207.144 53.1204L207.144 53.1204L207.642 53.1573ZM225.239 12.3056L225.691 12.0933L225.691 12.0933L225.239 12.3056ZM224.096 45.7841L224.574 45.9303L224.574 45.9303L224.096 45.7841ZM167.65 293.186L167.158 293.097L167.158 293.097L167.65 293.186ZM156.681 339.119L157.166 339.242L157.166 339.242L156.681 339.119ZM149.62 361.189C149.483 361.429 149.565 361.734 149.805 361.872C150.045 362.009 150.35 361.926 150.487 361.687L149.62 361.189ZM147.6 359.341C147.432 359.56 147.474 359.874 147.693 360.042C147.913 360.21 148.226 360.168 148.394 359.948L147.6 359.341ZM213.812 274.554L214.213 274.853L214.213 274.853L213.812 274.554ZM262.26 178.104L262.726 178.286L262.726 178.286L262.26 178.104ZM281.685 133.864L282.147 134.055L282.147 134.055L281.685 133.864ZM294.025 113.937L293.696 113.56L293.696 113.56L294.025 113.937ZM289.912 148.113L290.364 148.326L290.364 148.326L289.912 148.113ZM238.493 253.729L238.932 253.97L238.932 253.97L238.493 253.729ZM153.367 375.288L153.77 375.585L153.77 375.585L153.367 375.288ZM119.636 406.027C119.499 405.787 119.194 405.704 118.954 405.842C118.714 405.979 118.632 406.285 118.769 406.524L119.636 406.027ZM118.845 404.132C118.652 404.33 118.656 404.647 118.853 404.84C119.051 405.032 119.367 405.029 119.56 404.831L118.845 404.132ZM254.388 293.961L254.682 294.365L254.682 294.365L254.388 293.961ZM255.861 292.887L256.156 293.291L256.156 293.291L255.861 292.887ZM299.053 261.899L299.395 262.263L299.395 262.263L299.053 261.899ZM312.421 253.928L311.926 253.857L311.926 253.857L312.421 253.928ZM292.654 281.927L292.286 281.588L292.286 281.588L292.654 281.927ZM206.043 350.279L206.318 350.696L206.318 350.696L206.043 350.279ZM160.337 370.406L160.138 369.947L160.138 369.947L160.337 370.406ZM139.77 375.286C139.494 375.286 139.27 375.51 139.27 375.786C139.27 376.062 139.494 376.286 139.77 376.286V375.286ZM160.837 397.308V270.967H159.837V397.308H160.837ZM160.837 270.967C160.837 264.065 161.233 256.7 161.659 249.101C162.085 241.506 162.542 233.68 162.66 225.878C162.896 210.28 161.784 194.722 156.345 181.205L155.417 181.578C160.78 194.907 161.896 210.302 161.66 225.863C161.542 233.64 161.087 241.445 160.661 249.045C160.235 256.64 159.837 264.033 159.837 270.967H160.837ZM156.345 181.205C154.633 176.95 152.361 172.913 149.701 169.051L148.878 169.618C151.504 173.432 153.738 177.404 155.417 181.578L156.345 181.205ZM149.701 169.051C140.626 155.874 126.953 144.639 115.433 133.701L114.745 134.426C126.343 145.439 139.881 156.555 148.878 169.618L149.701 169.051ZM115.433 133.701C100.123 119.164 83.8688 104.56 66.9482 91.422L66.335 92.2119C83.219 105.321 99.4468 119.9 114.745 134.426L115.433 133.701ZM66.9482 91.422C55.1484 82.2601 43.3298 72.7889 30.9334 64.2047L30.3641 65.0268C42.7313 73.5908 54.5182 83.0368 66.335 92.2119L66.9482 91.422ZM30.9334 64.2047C28.5269 62.5382 25.689 60.8074 22.7336 58.9912C19.7728 57.1716 16.6881 55.2628 13.7649 53.2289C7.89983 49.1483 2.77397 44.6225 0.602012 39.4141L-0.320953 39.799C1.97026 45.2933 7.31316 49.9584 13.1938 54.0498C16.1433 56.102 19.2507 58.0245 22.2101 59.8431C25.1749 61.6651 27.9853 63.3795 30.3641 65.0268L30.9334 64.2047ZM0.602012 39.4141C0.506414 39.1848 0.487776 39.0071 0.506575 38.8683C0.525053 38.7318 0.584176 38.5988 0.700112 38.4634C0.946871 38.175 1.43128 37.8996 2.17957 37.6681C3.66071 37.2101 5.878 37.011 8.28192 36.9621C13.0807 36.8644 18.3738 37.3635 19.5429 37.4158L19.5876 36.4168C18.4989 36.3681 13.1004 35.8638 8.26157 35.9623C5.84669 36.0114 3.5087 36.2103 1.8841 36.7128C1.07953 36.9616 0.373446 37.3071 -0.0596489 37.8132C-0.283639 38.0749 -0.436784 38.3825 -0.484384 38.7341C-0.531663 39.0833 -0.470189 39.4411 -0.320953 39.799L0.602012 39.4141ZM19.5429 37.4158C35.6861 38.1377 50.8731 45.9624 63.508 54.3707L64.062 53.5382C51.3821 45.0999 36.0079 37.1511 19.5876 36.4168L19.5429 37.4158ZM63.508 54.3707C79.0063 64.6845 93.8499 75.8821 106.037 89.1658L106.774 88.4898C94.5071 75.1192 79.5868 63.8696 64.062 53.5382L63.508 54.3707ZM106.037 89.1658C110.601 94.1405 114.251 99.8922 117.763 105.789C121.266 111.673 124.64 117.715 128.625 123.198L129.434 122.61C125.484 117.176 122.146 111.195 118.622 105.277C115.106 99.373 111.412 93.5453 106.774 88.4898L106.037 89.1658ZM128.625 123.198C139.283 137.862 145.304 153.411 148.801 169.441L149.778 169.228C146.258 153.091 140.189 137.408 129.434 122.61L128.625 123.198ZM148.801 169.441C152.398 185.931 153.325 202.925 153.881 219.995C154.437 237.053 154.624 254.2 156.756 270.93L157.748 270.804C155.624 254.133 155.438 237.052 154.881 219.963C154.324 202.887 153.397 185.815 149.778 169.228L148.801 169.441ZM156.756 270.93C158.583 285.263 158.502 299.701 157.875 314.155C157.249 328.588 156.074 343.089 155.724 357.44L156.724 357.465C157.074 343.112 158.245 328.696 158.874 314.199C159.502 299.724 159.585 285.22 157.748 270.804L156.756 270.93ZM155.724 357.44C155.569 363.804 154.546 370.163 153.556 376.525C152.567 382.874 151.61 389.225 151.61 395.514H152.61C152.61 389.315 153.554 383.037 154.544 376.679C155.532 370.333 156.566 363.906 156.724 357.465L155.724 357.44ZM152.61 395.514C152.61 379.025 152.59 362.548 152.674 346.077L151.674 346.072C151.59 362.546 151.61 379.026 151.61 395.514H152.61ZM152.674 346.077C152.848 311.634 153.477 277.225 155.694 242.801L154.697 242.737C152.477 277.19 151.848 311.622 151.674 346.072L152.674 346.077ZM155.694 242.801C156.941 223.453 156.934 204.338 159.803 185.152L158.814 185.004C155.937 204.244 155.937 223.476 154.697 242.737L155.694 242.801ZM159.803 185.152C162.159 169.408 164.951 154.14 164.951 138.149H163.951C163.951 154.046 161.176 169.215 158.814 185.004L159.803 185.152ZM164.951 138.149V70.1955H163.951V138.149H164.951ZM164.951 70.1955C164.951 69.2301 164.695 63.4523 164.937 58.3038C165.059 55.7243 165.304 53.3654 165.751 51.879C165.861 51.5113 165.98 51.2118 166.104 50.9824C166.23 50.7494 166.347 50.616 166.44 50.5479C166.521 50.4896 166.582 50.4784 166.651 50.4894C166.738 50.5032 166.884 50.5619 167.093 50.7443L167.75 49.9906C167.46 49.7375 167.146 49.5556 166.808 49.5018C166.453 49.4453 166.127 49.5397 165.853 49.7384C165.593 49.9273 165.389 50.2022 165.224 50.5071C165.057 50.8156 164.915 51.1837 164.793 51.5914C164.308 53.2067 164.06 55.6752 163.938 58.2567C163.695 63.4301 163.951 69.3084 163.951 70.1955H164.951ZM167.093 50.7443C168.079 51.604 168.376 53.1871 168.37 55.0475C168.367 55.9568 168.292 56.887 168.216 57.7644C168.142 58.6299 168.064 59.4615 168.064 60.132H169.064C169.064 59.5157 169.136 58.7383 169.213 57.8502C169.288 56.974 169.366 56.0063 169.37 55.051C169.376 53.1821 169.102 51.1698 167.75 49.9906L167.093 50.7443ZM168.064 60.132C168.064 69.2557 170.327 77.7037 172.188 86.5396L173.167 86.3335C171.291 77.4259 169.064 69.1213 169.064 60.132H168.064ZM172.188 86.5396C178.82 118.026 182.811 149.09 182.461 181.087L183.461 181.098C183.812 149.009 179.81 117.87 173.167 86.3335L172.188 86.5396ZM182.461 181.087C182.034 220.234 180.398 262.437 168.089 300.305L169.04 300.614C181.402 262.586 183.034 220.243 183.461 181.098L182.461 181.087ZM168.089 300.305C163.553 314.257 158.957 331.334 151.726 345.851L152.621 346.297C159.896 331.692 164.528 314.494 169.04 300.614L168.089 300.305ZM151.726 345.851C149.302 350.717 146.587 355.285 143.486 359.341L144.281 359.948C147.429 355.83 150.177 351.205 152.621 346.297L151.726 345.851ZM144.383 359.65C144.952 302.089 162.708 246.72 178.187 190.991L177.224 190.724C161.762 246.389 143.954 301.914 143.383 359.64L144.383 359.65ZM178.187 190.991C185.888 163.265 191.164 135.313 197.845 107.477L196.872 107.244C190.174 135.151 184.921 163.012 177.224 190.724L178.187 190.991ZM197.845 107.477C202.226 89.2218 206.751 71.9741 208.141 53.1942L207.144 53.1204C205.762 71.8006 201.262 88.9566 196.872 107.244L197.845 107.477ZM208.141 53.1942C208.777 44.5991 210.314 36.1496 211.699 27.6511C213.083 19.1638 214.312 10.6373 214.312 1.94325H213.312C213.312 10.5498 212.095 19.0073 210.712 27.4903C209.331 35.9622 207.784 44.4694 207.144 53.1204L208.141 53.1942ZM214.312 1.94325C214.312 1.50337 214.352 1.17789 214.415 0.945357C214.479 0.711123 214.557 0.603662 214.609 0.557094C214.664 0.5073 214.817 0.42404 215.275 0.650476C215.713 0.867056 216.262 1.29586 216.891 1.90226C217.513 2.5021 218.186 3.24952 218.871 4.07403C220.241 5.72268 221.637 7.65468 222.736 9.27275C223.846 10.9057 224.626 12.1773 224.786 12.518L225.691 12.0933C225.492 11.6676 224.663 10.329 223.564 8.71062C222.453 7.07742 221.038 5.11709 219.641 3.43506C218.942 2.59423 218.243 1.81672 217.585 1.18238C216.934 0.554605 216.296 0.0399798 215.718 -0.245774C215.161 -0.521672 214.472 -0.666175 213.939 -0.185782C213.697 0.0327441 213.544 0.338234 213.45 0.683601C213.356 1.03067 213.312 1.45144 213.312 1.94325H214.312ZM224.786 12.518C229.971 23.5695 227.062 34.3745 223.618 45.6379L224.574 45.9303C228.009 34.6993 231.059 23.535 225.691 12.0933L224.786 12.518ZM223.618 45.6379C212.333 82.5412 201.023 119.299 192.871 156.974L193.848 157.186C201.989 119.559 213.286 82.842 224.574 45.9303L223.618 45.6379ZM192.871 156.974C183.106 202.103 175.33 247.75 167.158 293.097L168.142 293.275C176.317 247.914 184.088 202.292 193.848 157.186L192.871 156.974ZM167.158 293.097C164.353 308.662 160.106 323.592 156.196 338.996L157.166 339.242C161.066 323.874 165.329 308.885 168.142 293.275L167.158 293.097ZM156.196 338.996C155.723 340.861 155.313 342.77 154.906 344.682C154.499 346.597 154.094 348.514 153.627 350.41C152.693 354.201 151.521 357.875 149.62 361.189L150.487 361.687C152.456 358.254 153.656 354.476 154.598 350.649C155.069 348.735 155.478 346.801 155.885 344.89C156.292 342.976 156.698 341.085 157.166 339.242L156.196 338.996ZM148.394 359.948C170.172 331.462 192.78 303.545 214.213 274.853L213.412 274.254C191.974 302.953 169.41 330.813 147.6 359.341L148.394 359.948ZM214.213 274.853C236.54 244.963 249.63 211.713 262.726 178.286L261.794 177.921C248.693 211.365 235.646 244.489 213.412 274.254L214.213 274.853ZM262.726 178.286C265.645 170.834 268.962 163.5 272.32 156.164C275.677 148.832 279.075 141.496 282.147 134.055L281.223 133.674C278.16 141.092 274.771 148.409 271.411 155.748C268.053 163.083 264.725 170.44 261.794 177.921L262.726 178.286ZM282.147 134.055C285.003 127.136 288.356 119.543 294.354 114.314L293.696 113.56C287.499 118.965 284.071 126.774 281.223 133.674L282.147 134.055ZM294.354 114.314C295.824 113.031 297.008 112.433 297.934 112.272C298.831 112.116 299.514 112.363 300.054 112.866C300.614 113.387 301.044 114.208 301.332 115.221C301.618 116.228 301.752 117.382 301.752 118.52H302.752C302.752 117.31 302.61 116.061 302.294 114.948C301.979 113.841 301.48 112.827 300.735 112.134C299.97 111.421 298.973 111.076 297.763 111.286C296.582 111.492 295.234 112.219 293.696 113.56L294.354 114.314ZM301.752 118.52C301.752 123.767 299.877 128.608 297.388 133.404C296.144 135.803 294.754 138.174 293.375 140.579C291.999 142.979 290.636 145.409 289.459 147.899L290.364 148.326C291.521 145.875 292.867 143.475 294.243 141.077C295.615 138.684 297.019 136.287 298.276 133.865C300.79 129.019 302.752 124.006 302.752 118.52H301.752ZM289.459 147.899C272.694 183.404 257.063 218.832 238.055 253.489L238.932 253.97C257.959 219.278 273.612 183.801 290.364 148.326L289.459 147.899ZM238.055 253.489C214.572 296.305 182.355 335.125 152.965 374.991L153.77 375.585C183.112 335.783 215.406 296.864 238.932 253.97L238.055 253.489ZM152.965 374.991C151.89 376.449 144.733 386.558 137.161 395.114C133.37 399.398 129.505 403.258 126.268 405.452C124.642 406.554 123.233 407.195 122.106 407.304C121.552 407.358 121.083 407.282 120.688 407.084C120.294 406.887 119.938 406.552 119.636 406.027L118.769 406.524C119.151 407.191 119.643 407.68 120.241 407.979C120.837 408.277 121.502 408.367 122.202 408.3C123.583 408.166 125.162 407.41 126.829 406.28C130.177 404.011 134.111 400.07 137.91 395.777C145.519 387.178 152.709 377.023 153.77 375.585L152.965 374.991ZM119.56 404.831C129.944 394.202 140.716 384.071 151.795 374.298L151.134 373.548C140.039 383.335 129.248 393.483 118.845 404.132L119.56 404.831ZM151.795 374.298C184.151 345.757 219.118 320.278 254.682 294.365L254.093 293.556C218.536 319.465 183.53 344.971 151.134 373.548L151.795 374.298ZM254.682 294.365L256.156 293.291L255.567 292.483L254.093 293.556L254.682 294.365ZM256.156 293.291C263.332 288.062 270.89 283.359 278.301 278.424C285.7 273.497 292.932 268.35 299.395 262.263L298.71 261.535C292.309 267.564 285.133 272.673 277.747 277.592C270.371 282.504 262.766 287.237 255.567 292.483L256.156 293.291ZM299.395 262.263C299.57 262.099 299.935 261.693 300.411 261.163C300.896 260.621 301.518 259.925 302.225 259.152C303.641 257.604 305.39 255.758 307.052 254.251C307.883 253.498 308.684 252.836 309.405 252.341C310.137 251.837 310.739 251.539 311.179 251.456C311.393 251.415 311.531 251.433 311.619 251.468C311.697 251.498 311.776 251.558 311.848 251.698C312.012 252.018 312.096 252.674 311.926 253.857L312.916 253.999C313.09 252.785 313.053 251.856 312.737 251.241C312.569 250.914 312.318 250.669 311.989 250.538C311.671 250.412 311.326 250.41 310.993 250.473C310.341 250.596 309.598 250.995 308.838 251.517C308.067 252.048 307.229 252.741 306.38 253.511C304.683 255.05 302.909 256.923 301.487 258.477C300.776 259.255 300.15 259.955 299.666 260.496C299.171 261.048 298.844 261.409 298.71 261.535L299.395 262.263ZM311.926 253.857C311.154 259.245 308.173 264.108 304.398 268.675C300.606 273.261 296.112 277.443 292.286 281.588L293.021 282.266C296.766 278.209 301.364 273.914 305.168 269.312C308.988 264.692 312.105 259.657 312.916 253.999L311.926 253.857ZM292.286 281.588C268.12 307.77 236.41 329.64 205.767 349.861L206.318 350.696C236.956 330.478 268.762 308.548 293.021 282.266L292.286 281.588ZM205.767 349.861C198.49 354.664 191.08 357.946 183.486 360.897C175.909 363.842 168.104 366.474 160.138 369.947L160.537 370.864C168.484 367.399 176.211 364.798 183.848 361.829C191.469 358.867 198.955 355.555 206.318 350.696L205.767 349.861ZM160.138 369.947C156.983 371.323 154.166 372.529 151.311 373.447L151.618 374.399C154.526 373.463 157.386 372.238 160.537 370.864L160.138 369.947ZM151.311 373.447C147.755 374.59 144.141 375.286 139.77 375.286V376.286C144.258 376.286 147.976 375.57 151.618 374.399L151.311 373.447Z" transform="translate(0.718262 1.026)" fill="#0500FF"/>
</svg>
